<svg width="48" height="48" viewBox="0 0 48 48" fill="none" xmlns="http://www.w3.org/2000/svg">
<rect width="13.9294" height="19.2538" transform="translate(20.4639 11.2134)" fill="white"/>
<path d="M27.0232 44.1702C23.4419 43.9594 20.6528 43.2046 18.0092 41.742C15.0514 40.0965 12.8529 38.2357 11.3669 36.117C10.1761 34.4202 9.44499 32.5123 9.1543 30.3513C9.05131 29.5731 9.03706 26.5871 9.13091 25.7108C9.44956 22.781 10.1716 20.1842 11.3669 17.6952C12.8623 14.5686 15.0278 11.8967 17.5496 10.0544C19.223 8.83575 21.3372 7.81391 22.8277 7.49982C23.5355 7.35461 24.4215 7.29814 25.687 7.32638C27.6651 7.36859 29.2401 7.72006 30.9606 8.49828C32.1792 9.05142 33.3232 9.81081 34.2138 10.6638C34.8231 11.2497 35.1232 11.62 35.7654 12.5574C36.3842 13.4715 36.5482 13.7621 36.7967 14.3855C37.1764 15.3463 37.3872 16.373 37.7389 18.9838C38.067 21.4448 38.2358 22.2978 38.5967 23.2589C38.6906 23.5074 38.7656 23.7838 38.7656 23.8776V24.0465H38.4843C37.7437 24.0465 36.3279 24.5106 35.2499 25.1012C32.5592 26.5823 30.2154 29.1278 29.4842 31.3589C29.2968 31.9309 29.1936 32.601 29.2358 33.0089L29.264 33.3276H29.0951C28.9639 33.3276 28.8515 33.2714 28.5888 33.0745C28.2045 32.7839 27.5293 32.3996 27.056 32.1979C26.395 31.9215 25.9218 31.8276 24.9983 31.7808C23.7092 31.7152 22.903 31.57 21.8344 31.2137C20.3718 30.7262 18.572 29.6341 17.7561 28.7387C16.1437 26.9763 15.1125 24.1917 14.8546 20.8825C14.7936 20.0858 14.7374 19.8935 14.5545 19.8467C14.4561 19.8233 14.3999 19.8421 14.306 19.9357L14.1842 20.0575L14.2404 20.7279C14.292 21.3373 14.2872 21.4733 14.1936 22.1951C13.7249 25.9593 14.7841 29.1372 17.4703 32.0059C18.6656 33.2856 19.842 34.223 22.875 36.3044C24.947 37.7293 25.6125 38.2075 26.3531 38.7982C28.289 40.345 29.2358 41.653 29.5781 43.2468C29.6343 43.5092 29.6719 43.8139 29.6625 43.9266L29.6486 44.1328L29.2032 44.1611C28.7579 44.1939 27.4642 44.1984 27.0235 44.1705L27.0232 44.1702ZM27.9421 26.4984C28.1437 26.3766 28.1811 26.236 28.1623 25.5704L28.1483 24.9705L28.5468 24.8675C29.6249 24.5768 30.5437 24.0565 31.2655 23.3253C31.5374 23.044 31.5841 23.0161 31.7576 23.0161C31.9265 23.0161 32.0012 23.0583 32.4046 23.3863C32.6576 23.5926 32.9015 23.7755 32.9532 23.7894C33.0656 23.8268 33.211 23.7472 33.3095 23.602C33.3796 23.4942 33.3796 23.4754 33.3095 23.3724C33.2721 23.3067 33.0048 23.0723 32.7189 22.8426C32.1142 22.3599 32.1096 22.3411 32.386 21.8302C32.897 20.8785 33.1643 19.6224 33.0564 18.6662C32.9534 17.7662 32.6955 16.9834 32.2502 16.2052C31.9173 15.6238 31.9222 15.577 32.4097 15.1411C32.8832 14.7192 32.9768 14.588 32.9018 14.4239C32.8268 14.2599 32.6533 14.1755 32.5221 14.2365C32.4611 14.2647 32.2408 14.4473 32.03 14.6444C31.7113 14.9445 31.6269 15.0007 31.4863 15.0007C31.3833 15.0007 31.294 14.9679 31.2378 14.9023C31.191 14.8461 30.9425 14.6444 30.6892 14.457C29.9064 13.8665 28.922 13.4491 27.994 13.3133L27.6097 13.2571V12.6946C27.6097 12.2866 27.5909 12.0992 27.5395 12.0008C27.4083 11.7429 27.1786 11.6961 26.9958 11.8884C26.8879 12.0056 26.8834 12.029 26.8974 12.6338L26.9113 13.2526L26.4754 13.3322C25.374 13.5338 24.3567 14.012 23.5785 14.6869C23.1426 15.0712 23.0442 15.062 22.4816 14.6073C21.9191 14.1574 21.8674 14.1292 21.7222 14.2276C21.6566 14.2698 21.5816 14.3543 21.5534 14.415C21.4783 14.5791 21.5628 14.6823 22.1205 15.1182C22.6691 15.5447 22.697 15.6198 22.4486 15.9855C21.9188 16.7683 21.5534 17.8934 21.4877 18.9246C21.4176 20.0871 21.8863 21.5777 22.6362 22.5716C23.0299 23.0919 23.0254 23.1341 22.519 23.5794C22.3033 23.7717 22.0831 23.9919 22.0363 24.0669C21.9567 24.1888 21.9519 24.2216 22.0081 24.3294C22.0925 24.4889 22.266 24.5685 22.3878 24.5028C22.4346 24.4746 22.6551 24.2872 22.8753 24.0858C23.2504 23.7389 23.2832 23.7201 23.4941 23.7201C23.6863 23.7201 23.7565 23.7529 24.0566 23.9685C24.9005 24.5733 25.8895 24.9202 27.0143 25.0092L27.4223 25.042V25.5812C27.4223 26.1625 27.4785 26.3734 27.6613 26.5046C27.7974 26.5984 27.7786 26.5984 27.9426 26.5L27.9421 26.4984Z" fill="#CE9354"/>
<path d="M40.2138 29.878C40.12 29.775 40.1014 29.7 40.0826 29.3859L40.0686 29.0157H40.3311C40.6591 29.0157 40.6874 29.0624 40.6874 29.597V30.0001H40.5093C40.3781 30.0001 40.2985 29.9673 40.2141 29.8783L40.2138 29.878Z" fill="#CE9354"/>
<path d="M28.9689 7.19057C28.0643 6.93269 26.6955 6.70304 26.0768 6.70304H25.7815V6.54358C25.7815 6.40294 25.8237 6.34674 26.1238 6.08429C27.7128 4.67817 29.5973 3.71252 31.3597 3.3936C31.9457 3.28577 32.7941 3.18735 33.1315 3.18735H33.4222V3.32799C33.4222 3.43582 33.305 3.63266 32.9441 4.11562C31.641 5.87804 30.9894 6.54842 30.0754 7.07333C29.6019 7.34977 29.5411 7.35461 28.9691 7.19057H28.9689Z" fill="#CE9354"/>
<path d="M26.4845 44.925C25.1157 44.8078 23.9578 44.6249 22.8047 44.3437C21.3704 43.9968 20.1469 43.5937 19.1718 43.1389C16.2187 41.7656 13.5514 39.8389 11.7844 37.7998C10.4673 36.2858 9.58121 34.7528 9.01866 33.0138L8.7562 32.2122L8.54995 32.1794C8.30148 32.142 7.8844 31.9309 7.6077 31.7058C7.22343 31.3917 6.76387 30.4309 6.52965 29.4419C6.42666 29.0105 6.40783 28.8185 6.39358 27.9887L6.3796 27.0325L6.23896 26.9435C6.07009 26.8356 5.77025 26.4465 5.61079 26.1279C5.24992 25.4061 5.20286 24.2342 5.49355 23.1325C5.6202 22.6544 5.90605 21.956 6.11688 21.5997L6.28091 21.3184L6.20131 21.056C6.14027 20.8543 6.11688 20.6201 6.11688 20.1092C6.11688 19.3358 6.16851 19.0077 6.42155 18.2341C6.6278 17.5965 6.84803 17.1418 7.21832 16.5935C7.47136 16.2183 7.49019 16.1716 7.54182 15.7685C7.67788 14.681 8.16057 13.4809 8.84951 12.4918C9.13079 12.0887 9.85738 11.3153 10.1621 11.0857C10.3309 10.959 10.3589 10.9123 10.4057 10.6498C10.762 8.61552 12.7683 6.39837 14.9104 5.67179C15.3697 5.51716 15.4308 5.48436 15.5432 5.31548C16.2509 4.27024 17.6385 3.45922 19.2745 3.14513C21.4215 2.73263 23.6854 3.08893 24.9278 4.04516C25.3497 4.36866 25.5933 4.77175 25.7106 5.3577L25.7388 5.49377L25.959 5.28752C26.7606 4.55152 28.2324 3.6609 29.4605 3.17337C30.7496 2.66244 32.5494 2.34379 33.8902 2.39515C34.3073 2.41397 34.3215 2.41854 34.4573 2.56859C34.6542 2.78883 34.6353 2.91548 34.3355 3.37021L34.0776 3.76389L34.1715 3.86688C34.5466 4.2654 34.4901 5.5169 34.0496 6.62318C33.8434 7.14352 33.3981 7.97794 33.1028 8.3856L32.8872 8.69027L33.0232 8.78412C34.6499 9.95118 35.4092 10.7294 36.4827 12.3138C37.6264 14.0012 37.9781 15.1309 38.4374 18.567C38.8733 21.8248 39.0607 22.678 39.5905 23.7279C39.989 24.5246 40.3921 25.0216 40.9592 25.4201C41.1561 25.5607 41.4656 25.8092 41.6436 25.9732C43.0263 27.2481 43.4248 29.0716 42.7499 31.0825C42.1217 32.967 40.5607 34.9308 38.7655 36.1027C37.7248 36.7825 36.7078 37.1902 35.3482 37.4809C35.2404 37.5043 35.2358 37.5137 35.2638 37.8651C35.3248 38.6573 35.7231 39.6276 36.2576 40.2979C36.6185 40.7478 37.0031 41.0525 37.5374 41.3104C37.9639 41.5166 38.1093 41.6573 38.1093 41.8681C38.1093 42.1445 38.0064 42.2432 37.3266 42.6135C35.086 43.8556 32.7938 44.587 30.3046 44.8589C29.8453 44.9105 26.9015 44.9619 26.4842 44.9245L26.4845 44.925ZM29.5032 43.9688C29.5315 43.9406 29.5126 43.7437 29.4422 43.4202C29.1047 41.803 28.1625 40.4999 26.2126 38.9389C25.472 38.3484 24.8065 37.8702 22.7346 36.445C21.7689 35.7795 20.6909 35.0247 20.344 34.7668C16.369 31.8136 14.5221 29.0716 14.0112 25.359C13.9173 24.6887 13.9362 22.973 14.0486 22.0778C14.133 21.4308 14.133 21.2811 14.086 20.7185C14.0249 20.0247 14.0297 19.9451 14.1704 19.7951C14.3861 19.556 14.808 19.6356 14.897 19.9311C14.9252 20.0156 14.9672 20.3904 15 20.7656C15.253 24.0468 16.2891 26.8405 17.8969 28.5983C18.7125 29.4935 20.5126 30.5858 21.9752 31.0733C23.0438 31.4296 23.8503 31.5748 25.1391 31.6405C26.0626 31.6872 26.5361 31.7811 27.1968 32.0575C27.6704 32.2592 28.3453 32.6435 28.7296 32.9342C28.917 33.0748 29.0765 33.1872 29.0859 33.1872C29.0905 33.1872 29.0905 33.056 29.0765 32.8965C29.0297 32.245 29.2873 31.1903 29.6998 30.3419C29.9811 29.7699 30.6421 28.7857 31.139 28.1949C32.4187 26.681 34.3078 25.2558 35.9858 24.5386C36.8952 24.1495 37.8044 23.9059 38.3436 23.9059C38.4982 23.9059 38.6248 23.8919 38.6248 23.8776C38.6248 23.8637 38.5498 23.648 38.456 23.3995C38.0951 22.4387 37.9262 21.5855 37.5982 19.1244C37.2467 16.5136 37.0356 15.4869 36.6559 14.5261C36.4074 13.9028 36.2434 13.6121 35.6246 12.6981C34.9825 11.7607 34.6824 11.3904 34.073 10.8044C32.5309 9.32785 30.3982 8.23555 28.0778 7.73888C27.2105 7.55145 26.6856 7.49041 25.6872 7.46701C24.5669 7.43878 23.6574 7.49525 22.9685 7.64046C21.478 7.95454 19.3638 8.97639 17.6904 10.1951C16.2749 11.2309 14.8077 12.6935 13.7248 14.1561C11.4937 17.1654 10.0311 20.7139 9.44972 24.5155C9.23889 25.8982 9.21066 26.3341 9.21523 28.0078C9.21523 30.1405 9.32306 30.9515 9.82457 32.5687C10.9309 36.1312 13.6872 39.1217 18.1497 41.6016C19.8325 42.5344 21.5855 43.172 23.6012 43.5937C24.6465 43.8093 25.4107 43.9029 27.1637 44.0344C27.5996 44.0672 29.4559 44.0156 29.5027 43.9688H29.5032ZM31.2517 43.6407C32.7705 43.3828 34.2564 42.9002 35.761 42.183L36.3375 41.9065L36.1124 41.7285C35.5827 41.3066 34.9828 40.5284 34.6921 39.8723C34.4202 39.2723 34.275 38.7098 34.1951 37.9644L34.1669 37.6971L33.717 37.6409C32.789 37.5236 32.1703 37.2985 31.4294 36.8064C31.0731 36.572 30.7077 36.2487 29.8827 35.4377C28.6685 34.2518 28.2515 33.8955 27.5437 33.4736C26.6203 32.925 26.0061 32.7376 25.0031 32.6954C23.6717 32.6392 22.7905 32.4846 21.6328 32.1049C20.4515 31.7158 18.7547 30.8111 17.9015 30.1128C17.1139 29.4706 16.4015 28.5988 15.7873 27.5299C15.6093 27.2298 15.4687 26.9956 15.4687 27.0096C15.4687 27.0284 15.5343 27.2253 15.6139 27.4549C16.0498 28.6879 16.8374 29.9533 17.9483 31.1908C18.9607 32.3205 20.4139 33.5207 22.467 34.9222C25.3873 36.9191 26.0951 37.4252 27.0468 38.1988C28.5093 39.3802 29.4045 40.4208 29.9765 41.6019C30.2766 42.2206 30.389 42.5769 30.4968 43.2379C30.5485 43.5566 30.5998 43.7348 30.6375 43.7348C30.6657 43.7348 30.9422 43.6926 31.2517 43.641V43.6407ZM34.008 36.1315C33.7455 35.8596 33.6237 35.6956 33.4548 35.3439C33.1502 34.7297 33.0797 34.411 33.0751 33.7032C33.0706 33.3798 33.0845 33.0329 33.1034 32.9299L33.1316 32.7424L32.8457 32.555C32.4472 32.2971 32.3442 32.1285 32.3442 31.7488C32.3442 31.5848 32.3676 31.4065 32.391 31.3551C32.4661 31.2191 32.6911 31.1255 32.9536 31.1255C33.2394 31.1255 33.3287 31.1677 33.6146 31.4302C33.7318 31.538 33.952 31.6738 34.1067 31.7348C34.3457 31.8287 34.4581 31.8427 34.9362 31.8333L35.4894 31.8239L35.6254 31.9645C35.7567 32.0911 35.7661 32.1285 35.7661 32.438C35.7661 32.7521 35.7567 32.7849 35.6209 32.9116C35.452 33.0662 35.274 33.1084 34.7491 33.1133L34.3694 33.1178L34.3411 33.2539C34.2895 33.5024 34.3129 33.9665 34.3879 34.2241C34.5003 34.5992 34.6972 34.9225 35.0067 35.2132C35.3724 35.5601 35.7707 35.7523 36.3098 35.8365C37.1631 35.9677 38.7848 34.9413 40.0412 33.4739C41.0442 32.3068 41.6068 31.2707 41.8926 30.0754C42.0144 29.5833 42.0004 28.8519 41.8644 28.4066C41.5879 27.5114 41.1754 26.9816 40.1721 26.2411C39.7642 25.941 39.4176 25.5849 39.1691 25.2098L38.9911 24.9425L38.6068 24.9659C36.6382 25.0971 33.877 26.7471 32.0256 28.8987C31.2194 29.8409 30.6286 30.83 30.3288 31.758C30.1271 32.3767 30.1085 32.9955 30.2726 33.4782C30.5633 34.322 31.6601 35.4985 32.6258 35.9954C33.1321 36.2579 33.5726 36.3797 34.2946 36.4641C34.3274 36.4641 34.1962 36.3141 34.0088 36.1312L34.008 36.1315ZM8.25012 30.4877C8.14229 29.8173 8.0955 28.7018 8.12346 27.4501C8.14229 26.7235 8.17025 26.0719 8.18451 25.9923L8.21731 25.8517L8.06269 25.9923C7.73919 26.297 7.53294 26.8079 7.45335 27.5205C7.36891 28.2659 7.55177 29.3346 7.89866 30.0751C8.04387 30.3986 8.25496 30.7595 8.27835 30.7361C8.28293 30.7316 8.26894 30.6189 8.25012 30.4877ZM7.18605 24.9659C7.45792 24.7408 7.78599 24.5768 8.08609 24.5112C8.28777 24.469 8.34854 24.4316 8.36736 24.3566C8.37677 24.3004 8.4284 24.0051 8.48461 23.6956C8.64864 22.7533 9.05173 21.0799 9.2112 20.6628C9.23943 20.5927 9.21577 20.5832 8.99096 20.6112C8.85489 20.6252 8.60669 20.7002 8.43782 20.7801C8.03472 20.9675 7.42054 21.5817 7.12071 22.102C6.43634 23.2785 6.20669 24.6521 6.54417 25.5051L6.61919 25.6831L6.80662 25.4066C6.90961 25.252 7.07849 25.0552 7.18632 24.9659H7.18605ZM7.68756 19.669C8.11405 19.4439 8.52198 19.3503 9.11251 19.3315L9.67022 19.3175L9.86706 18.8111C10.1107 18.2018 10.5514 17.2267 10.8373 16.669L11.0481 16.2659L10.9169 16.1675C10.8467 16.1159 10.6684 16.0223 10.5232 15.9519C10.2887 15.8489 10.2185 15.8395 9.97005 15.8674C8.78874 15.9986 7.57005 17.6347 7.24198 19.5189C7.20461 19.7486 7.1718 19.9454 7.1718 19.9548C7.1718 19.9688 7.24199 19.9314 7.32642 19.8798C7.40602 19.8236 7.57005 19.7297 7.6873 19.669H7.68756ZM12.2157 14.358C12.7221 13.6126 12.9891 13.2518 13.4392 12.7126C13.5753 12.5486 13.6877 12.3891 13.6877 12.3563C13.6877 12.2485 13.1391 11.6953 12.9049 11.5687C12.5392 11.367 12.2767 11.3296 11.9347 11.414C11.1379 11.6203 10.3035 12.3281 9.60972 13.3827C9.38464 13.7342 9.00494 14.4702 8.93476 14.7047L8.90195 14.8031L9.19721 14.7092C9.44568 14.6342 9.59573 14.6202 10.1768 14.6342L10.8566 14.6482L11.2786 14.8639C11.5082 14.9811 11.7005 15.0841 11.705 15.0841C11.7096 15.0887 11.9395 14.7606 12.216 14.3575L12.2157 14.358ZM15.7688 10.2986C16.3265 9.81592 17.1797 9.16893 17.6952 8.83602C17.9297 8.68597 18.1217 8.55958 18.1266 8.55474C18.136 8.55017 18.0983 8.39071 18.0421 8.19844C17.8313 7.42022 17.4373 6.87192 16.9313 6.64227C16.6828 6.52987 16.1391 6.51105 15.722 6.60006C14.5829 6.83911 13.1719 7.85155 12.3329 9.02829C12.0939 9.36577 11.7188 10.0173 11.7188 10.0924C11.7188 10.1063 12 10.1252 12.3421 10.1346C12.8248 10.1534 13.0219 10.1814 13.2233 10.2612C13.617 10.4113 14.0483 10.7065 14.367 11.044L14.6482 11.3441L14.9997 10.9972C15.192 10.8098 15.5389 10.4957 15.7685 10.2989L15.7688 10.2986ZM32.3203 7.56113C32.6954 6.97518 33.0703 6.18782 33.2155 5.68604C33.2811 5.44698 33.3279 5.22674 33.3185 5.19851C33.3091 5.17027 33.145 5.35313 32.9528 5.6016C32.5685 6.11253 31.7575 6.97491 31.3496 7.31723L31.0823 7.53747L31.5136 7.74829C31.7526 7.86553 31.9683 7.96395 32.0011 7.96395C32.0293 7.96853 32.1746 7.78594 32.3198 7.56086L32.3203 7.56113ZM19.8048 7.62217C21.244 6.92839 22.5283 6.53471 23.686 6.43145C24.2251 6.37982 24.3001 6.33303 24.5249 5.87374C24.6562 5.60187 24.6656 5.56906 24.6045 5.42843C24.3937 4.91293 23.7233 4.50957 22.6076 4.23313C22.1341 4.11132 22.0357 4.10648 21.07 4.1019C20.245 4.1019 19.9592 4.12073 19.6402 4.18634C18.745 4.37861 17.8074 4.76288 17.2776 5.14715L17.048 5.31602L17.301 5.39105C18.2105 5.66291 18.9182 6.47851 19.2089 7.58479C19.2511 7.74426 19.2979 7.87064 19.3119 7.86123C19.3259 7.85182 19.5464 7.74399 19.804 7.62217H19.8048ZM29.9346 6.93323C30.1596 6.80658 30.4783 6.59091 30.6377 6.46453C31.1675 6.04261 31.9409 5.15199 32.8783 3.88167L33.2814 3.32853H33.1313C32.9111 3.3331 31.9734 3.45034 31.5001 3.53478C29.7235 3.85343 27.6609 4.92691 26.1798 6.30049L25.8985 6.55837L26.2032 6.56295C26.8502 6.56295 28.2047 6.79259 29.1095 7.05048C29.3298 7.11152 29.5126 7.16772 29.5175 7.16772C29.5221 7.17229 29.7097 7.06473 29.9346 6.93323Z" fill="#010000"/>
<path d="M27.5204 26.6436C27.3375 26.5124 27.2813 26.3013 27.2813 25.7202V25.181L26.8734 25.1482C25.7483 25.0592 24.7592 24.7123 23.9157 24.1075C23.7282 23.9715 23.536 23.8591 23.4937 23.8591C23.4469 23.8591 23.2313 24.0231 23.0156 24.2248C22.7954 24.431 22.5703 24.6185 22.5141 24.6467C22.1906 24.8202 21.7969 24.5765 21.7969 24.206C21.7969 24.0653 21.947 23.798 22.0734 23.7045C22.1202 23.6762 22.2984 23.517 22.467 23.3621L22.7717 23.0763L22.4904 22.706C22.3404 22.4997 22.1013 22.1061 21.9607 21.8199C21.2435 20.3574 21.1403 18.7544 21.6654 17.184C21.8201 16.7247 22.0779 16.1855 22.3076 15.8435C22.3872 15.7311 22.4342 15.6184 22.4154 15.6044C22.3966 15.5856 22.1669 15.4027 21.9045 15.1919C21.5388 14.9012 21.417 14.7794 21.3842 14.6622C21.2951 14.3341 21.5154 14.0152 21.8249 14.0152C22.0406 14.0152 22.1156 14.0574 22.6217 14.4651C22.8562 14.6573 23.067 14.8119 23.0904 14.8119C23.1138 14.8119 23.2684 14.6901 23.4373 14.5447C24.2106 13.8697 25.2325 13.3916 26.3248 13.1947L26.7513 13.1151L26.7467 12.4918C26.7421 11.8919 26.7467 11.8636 26.8545 11.7464C26.9998 11.5918 27.2203 11.5496 27.4359 11.6386C27.6984 11.751 27.75 11.9059 27.75 12.5526V13.1151L28.1343 13.1713C29.2217 13.3308 30.2436 13.8041 31.1624 14.5775L31.5048 14.8633L31.8656 14.5258C32.4234 14.0009 32.5406 13.9493 32.8359 14.0851C33.0047 14.1695 33.0937 14.3242 33.0937 14.5444C33.0937 14.774 32.9907 14.8958 32.1891 15.6085C32.1657 15.6273 32.2547 15.8287 32.386 16.0538C33.4361 17.8818 33.5017 20.0333 32.5734 21.871L32.3577 22.2975L32.8453 22.6866C33.4312 23.1553 33.5157 23.2538 33.5157 23.4788C33.5157 23.6945 33.4078 23.8491 33.2016 23.9381C32.9625 24.0366 32.7985 23.9615 32.2642 23.5256C32.0111 23.3239 31.786 23.1553 31.7578 23.1553C31.7296 23.1553 31.5704 23.296 31.4063 23.4646C30.6846 24.1957 29.7609 24.7161 28.6877 25.0022L28.2892 25.11L28.308 25.7006C28.3174 26.0848 28.3034 26.3427 28.2706 26.4271C28.1628 26.6896 27.7551 26.8068 27.5206 26.6428L27.5204 26.6436ZM31.4531 19.0077C31.6548 18.9047 31.7484 18.6891 31.7204 18.4029C31.7016 18.2061 31.6736 18.1451 31.5096 17.9904C31.3407 17.8358 31.2894 17.8124 31.0877 17.8124C30.4644 17.8124 30.2533 18.5342 30.7502 18.9561C30.9237 19.1013 31.2329 19.1201 31.4534 19.0077H31.4531ZM29.7515 17.6764C30.0562 17.5217 30.267 17.3155 30.4076 17.0248C30.7639 16.2982 30.3794 15.3654 29.6154 15.1123C29.1561 14.9623 28.4857 15.1357 28.1905 15.4826C27.5295 16.2608 27.8202 17.3951 28.767 17.7465C29.0155 17.8404 29.503 17.8076 29.7515 17.6764Z" fill="#010000"/>
<path d="M40.2937 31.1484C40.0124 31.0405 39.6233 30.7264 39.4453 30.4546C38.9717 29.742 39.0562 28.5843 39.6187 28.1014C39.8438 27.9139 40.003 27.8717 40.4483 27.8997C40.8326 27.9185 41.067 28.0543 41.3201 28.3966C41.5591 28.7153 41.6248 28.9872 41.6248 29.6247C41.6248 30.4124 41.4887 30.8717 41.1889 31.0919C41.0248 31.2185 40.5513 31.2465 40.2937 31.1481V31.1484ZM40.5467 29.5968C40.5467 29.2733 40.4857 29.156 40.3265 29.156C40.2092 29.156 40.2092 29.1654 40.2281 29.3905C40.2514 29.6156 40.3969 29.8592 40.5093 29.8592C40.5282 29.8592 40.5467 29.742 40.5467 29.5968Z" fill="#010000"/>
<path d="M26.4845 44.925C25.1157 44.8078 23.9578 44.6249 22.8047 44.3437C21.3704 43.9968 20.1469 43.5937 19.1718 43.1389C16.2187 41.7656 13.5514 39.8389 11.7844 37.7998C10.4673 36.2858 9.58121 34.7528 9.01866 33.0138L8.7562 32.2122L8.54995 32.1794C8.30148 32.142 7.8844 31.9309 7.6077 31.7058C7.22343 31.3917 6.76387 30.4309 6.52965 29.4419C6.42666 29.0105 6.40783 28.8185 6.39358 27.9887L6.3796 27.0325L6.23896 26.9435C6.07009 26.8356 5.77025 26.4465 5.61079 26.1279C5.24992 25.4061 5.20286 24.2342 5.49355 23.1325C5.6202 22.6544 5.90605 21.956 6.11688 21.5997L6.28091 21.3184L6.20131 21.056C6.14027 20.8543 6.11688 20.6201 6.11688 20.1092C6.11688 19.3358 6.16851 19.0077 6.42155 18.2341C6.6278 17.5965 6.84803 17.1418 7.21832 16.5935C7.47136 16.2183 7.49019 16.1716 7.54182 15.7685C7.67788 14.681 8.16057 13.4809 8.84951 12.4918C9.13079 12.0887 9.85738 11.3153 10.1621 11.0857C10.3309 10.959 10.3589 10.9123 10.4057 10.6498C10.762 8.61552 12.7683 6.39837 14.9104 5.67179C15.3697 5.51716 15.4308 5.48436 15.5432 5.31548C16.2509 4.27024 17.6385 3.45922 19.2745 3.14513C21.4215 2.73263 23.6854 3.08893 24.9278 4.04516C25.3497 4.36866 25.5933 4.77175 25.7106 5.3577L25.7388 5.49377L25.959 5.28752C26.7606 4.55152 28.2324 3.6609 29.4605 3.17337C30.7496 2.66244 32.5494 2.34379 33.8902 2.39515C34.3073 2.41397 34.3215 2.41854 34.4573 2.56859C34.6542 2.78883 34.6353 2.91548 34.3355 3.37021L34.0776 3.76389L34.1715 3.86688C34.5466 4.2654 34.4901 5.5169 34.0496 6.62318C33.8434 7.14352 33.3981 7.97794 33.1028 8.3856L32.8872 8.69027L33.0232 8.78412C34.6499 9.95118 35.4092 10.7294 36.4827 12.3138C37.6264 14.0012 37.9781 15.1309 38.4374 18.567C38.8733 21.8248 39.0607 22.678 39.5905 23.7279C39.989 24.5246 40.3921 25.0216 40.9592 25.4201C41.1561 25.5607 41.4656 25.8092 41.6436 25.9732C43.0263 27.2481 43.4248 29.0716 42.7499 31.0825C42.1217 32.967 40.5607 34.9308 38.7655 36.1027C37.7248 36.7825 36.7078 37.1902 35.3482 37.4809C35.2404 37.5043 35.2358 37.5137 35.2638 37.8651C35.3248 38.6573 35.7231 39.6276 36.2576 40.2979C36.6185 40.7478 37.0031 41.0525 37.5374 41.3104C37.9639 41.5166 38.1093 41.6573 38.1093 41.8681C38.1093 42.1445 38.0064 42.2432 37.3266 42.6135C35.086 43.8556 32.7938 44.587 30.3046 44.8589C29.8453 44.9105 26.9015 44.9619 26.4842 44.9245L26.4845 44.925ZM29.5032 43.9688C29.5315 43.9406 29.5126 43.7437 29.4422 43.4202C29.1047 41.803 28.1625 40.4999 26.2126 38.9389C25.472 38.3484 24.8065 37.8702 22.7346 36.445C21.7689 35.7795 20.6909 35.0247 20.344 34.7668C16.369 31.8136 14.5221 29.0716 14.0112 25.359C13.9173 24.6887 13.9362 22.973 14.0486 22.0778C14.133 21.4308 14.133 21.2811 14.086 20.7185C14.0249 20.0247 14.0297 19.9451 14.1704 19.7951C14.3861 19.556 14.808 19.6356 14.897 19.9311C14.9252 20.0156 14.9672 20.3904 15 20.7656C15.253 24.0468 16.2891 26.8405 17.8969 28.5983C18.7125 29.4935 20.5126 30.5858 21.9752 31.0733C23.0438 31.4296 23.8503 31.5748 25.1391 31.6405C26.0626 31.6872 26.5361 31.7811 27.1968 32.0575C27.6704 32.2592 28.3453 32.6435 28.7296 32.9342C28.917 33.0748 29.0765 33.1872 29.0859 33.1872C29.0905 33.1872 29.0905 33.056 29.0765 32.8965C29.0297 32.245 29.2873 31.1903 29.6998 30.3419C29.9811 29.7699 30.6421 28.7857 31.139 28.1949C32.4187 26.681 34.3078 25.2558 35.9858 24.5386C36.8952 24.1495 37.8044 23.9059 38.3436 23.9059C38.4982 23.9059 38.6248 23.8919 38.6248 23.8776C38.6248 23.8637 38.5498 23.648 38.456 23.3995C38.0951 22.4387 37.9262 21.5855 37.5982 19.1244C37.2467 16.5136 37.0356 15.4869 36.6559 14.5261C36.4074 13.9028 36.2434 13.6121 35.6246 12.6981C34.9825 11.7607 34.6824 11.3904 34.073 10.8044C32.5309 9.32785 30.3982 8.23555 28.0778 7.73888C27.2105 7.55145 26.6856 7.49041 25.6872 7.46701C24.5669 7.43878 23.6574 7.49525 22.9685 7.64046C21.478 7.95454 19.3638 8.97639 17.6904 10.1951C16.2749 11.2309 14.8077 12.6935 13.7248 14.1561C11.4937 17.1654 10.0311 20.7139 9.44972 24.5155C9.23889 25.8982 9.21066 26.3341 9.21523 28.0078C9.21523 30.1405 9.32306 30.9515 9.82457 32.5687C10.9309 36.1312 13.6872 39.1217 18.1497 41.6016C19.8325 42.5344 21.5855 43.172 23.6012 43.5937C24.6465 43.8093 25.4107 43.9029 27.1637 44.0344C27.5996 44.0672 29.4559 44.0156 29.5027 43.9688H29.5032ZM31.2517 43.6407C32.7705 43.3828 34.2564 42.9002 35.761 42.183L36.3375 41.9065L36.1124 41.7285C35.5827 41.3066 34.9828 40.5284 34.6921 39.8723C34.4202 39.2723 34.275 38.7098 34.1951 37.9644L34.1669 37.6971L33.717 37.6409C32.789 37.5236 32.1703 37.2985 31.4294 36.8064C31.0731 36.572 30.7077 36.2487 29.8827 35.4377C28.6685 34.2518 28.2515 33.8955 27.5437 33.4736C26.6203 32.925 26.0061 32.7376 25.0031 32.6954C23.6717 32.6392 22.7905 32.4846 21.6328 32.1049C20.4515 31.7158 18.7547 30.8111 17.9015 30.1128C17.1139 29.4706 16.4015 28.5988 15.7873 27.5299C15.6093 27.2298 15.4687 26.9956 15.4687 27.0096C15.4687 27.0284 15.5343 27.2253 15.6139 27.4549C16.0498 28.6879 16.8374 29.9533 17.9483 31.1908C18.9607 32.3205 20.4139 33.5207 22.467 34.9222C25.3873 36.9191 26.0951 37.4252 27.0468 38.1988C28.5093 39.3802 29.4045 40.4208 29.9765 41.6019C30.2766 42.2206 30.389 42.5769 30.4968 43.2379C30.5485 43.5566 30.5998 43.7348 30.6375 43.7348C30.6657 43.7348 30.9422 43.6926 31.2517 43.641V43.6407ZM34.008 36.1315C33.7455 35.8596 33.6237 35.6956 33.4548 35.3439C33.1502 34.7297 33.0797 34.411 33.0751 33.7032C33.0706 33.3798 33.0845 33.0329 33.1034 32.9299L33.1316 32.7424L32.8457 32.555C32.4472 32.2971 32.3442 32.1285 32.3442 31.7488C32.3442 31.5848 32.3676 31.4065 32.391 31.3551C32.4661 31.2191 32.6911 31.1255 32.9536 31.1255C33.2394 31.1255 33.3287 31.1677 33.6146 31.4302C33.7318 31.538 33.952 31.6738 34.1067 31.7348C34.3457 31.8287 34.4581 31.8427 34.9362 31.8333L35.4894 31.8239L35.6254 31.9645C35.7567 32.0911 35.7661 32.1285 35.7661 32.438C35.7661 32.7521 35.7567 32.7849 35.6209 32.9116C35.452 33.0662 35.274 33.1084 34.7491 33.1133L34.3694 33.1178L34.3411 33.2539C34.2895 33.5024 34.3129 33.9665 34.3879 34.2241C34.5003 34.5992 34.6972 34.9225 35.0067 35.2132C35.3724 35.5601 35.7707 35.7523 36.3098 35.8365C37.1631 35.9677 38.7848 34.9413 40.0412 33.4739C41.0442 32.3068 41.6068 31.2707 41.8926 30.0754C42.0144 29.5833 42.0004 28.8519 41.8644 28.4066C41.5879 27.5114 41.1754 26.9816 40.1721 26.2411C39.7642 25.941 39.4176 25.5849 39.1691 25.2098L38.9911 24.9425L38.6068 24.9659C36.6382 25.0971 33.877 26.7471 32.0256 28.8987C31.2194 29.8409 30.6286 30.83 30.3288 31.758C30.1271 32.3767 30.1085 32.9955 30.2726 33.4782C30.5633 34.322 31.6601 35.4985 32.6258 35.9954C33.1321 36.2579 33.5726 36.3797 34.2946 36.4641C34.3274 36.4641 34.1962 36.3141 34.0088 36.1312L34.008 36.1315ZM8.25012 30.4877C8.14229 29.8173 8.0955 28.7018 8.12346 27.4501C8.14229 26.7235 8.17025 26.0719 8.18451 25.9923L8.21731 25.8517L8.06269 25.9923C7.73919 26.297 7.53294 26.8079 7.45335 27.5205C7.36891 28.2659 7.55177 29.3346 7.89866 30.0751C8.04387 30.3986 8.25496 30.7595 8.27835 30.7361C8.28293 30.7316 8.26894 30.6189 8.25012 30.4877ZM7.18605 24.9659C7.45792 24.7408 7.78599 24.5768 8.08609 24.5112C8.28777 24.469 8.34854 24.4316 8.36736 24.3566C8.37677 24.3004 8.4284 24.0051 8.48461 23.6956C8.64864 22.7533 9.05173 21.0799 9.2112 20.6628C9.23943 20.5927 9.21577 20.5832 8.99096 20.6112C8.85489 20.6252 8.60669 20.7002 8.43782 20.7801C8.03472 20.9675 7.42054 21.5817 7.12071 22.102C6.43634 23.2785 6.20669 24.6521 6.54417 25.5051L6.61919 25.6831L6.80662 25.4066C6.90961 25.252 7.07849 25.0552 7.18632 24.9659H7.18605ZM7.68756 19.669C8.11405 19.4439 8.52198 19.3503 9.11251 19.3315L9.67022 19.3175L9.86706 18.8111C10.1107 18.2018 10.5514 17.2267 10.8373 16.669L11.0481 16.2659L10.9169 16.1675C10.8467 16.1159 10.6684 16.0223 10.5232 15.9519C10.2887 15.8489 10.2185 15.8395 9.97005 15.8674C8.78874 15.9986 7.57005 17.6347 7.24198 19.5189C7.20461 19.7486 7.1718 19.9454 7.1718 19.9548C7.1718 19.9688 7.24199 19.9314 7.32642 19.8798C7.40602 19.8236 7.57005 19.7297 7.6873 19.669H7.68756ZM12.2157 14.358C12.7221 13.6126 12.9891 13.2518 13.4392 12.7126C13.5753 12.5486 13.6877 12.3891 13.6877 12.3563C13.6877 12.2485 13.1391 11.6953 12.9049 11.5687C12.5392 11.367 12.2767 11.3296 11.9347 11.414C11.1379 11.6203 10.3035 12.3281 9.60972 13.3827C9.38464 13.7342 9.00494 14.4702 8.93476 14.7047L8.90195 14.8031L9.19721 14.7092C9.44568 14.6342 9.59573 14.6202 10.1768 14.6342L10.8566 14.6482L11.2786 14.8639C11.5082 14.9811 11.7005 15.0841 11.705 15.0841C11.7096 15.0887 11.9395 14.7606 12.216 14.3575L12.2157 14.358ZM15.7688 10.2986C16.3265 9.81592 17.1797 9.16893 17.6952 8.83602C17.9297 8.68597 18.1217 8.55958 18.1266 8.55474C18.136 8.55017 18.0983 8.39071 18.0421 8.19844C17.8313 7.42022 17.4373 6.87192 16.9313 6.64227C16.6828 6.52987 16.1391 6.51105 15.722 6.60006C14.5829 6.83911 13.1719 7.85155 12.3329 9.02829C12.0939 9.36577 11.7188 10.0173 11.7188 10.0924C11.7188 10.1063 12 10.1252 12.3421 10.1346C12.8248 10.1534 13.0219 10.1814 13.2233 10.2612C13.617 10.4113 14.0483 10.7065 14.367 11.044L14.6482 11.3441L14.9997 10.9972C15.192 10.8098 15.5389 10.4957 15.7685 10.2989L15.7688 10.2986ZM32.3203 7.56113C32.6954 6.97518 33.0703 6.18782 33.2155 5.68604C33.2811 5.44698 33.3279 5.22674 33.3185 5.19851C33.3091 5.17027 33.145 5.35313 32.9528 5.6016C32.5685 6.11253 31.7575 6.97491 31.3496 7.31723L31.0823 7.53747L31.5136 7.74829C31.7526 7.86553 31.9683 7.96395 32.0011 7.96395C32.0293 7.96853 32.1746 7.78594 32.3198 7.56086L32.3203 7.56113ZM19.8048 7.62217C21.244 6.92839 22.5283 6.53471 23.686 6.43145C24.2251 6.37982 24.3001 6.33303 24.5249 5.87374C24.6562 5.60187 24.6656 5.56906 24.6045 5.42843C24.3937 4.91293 23.7233 4.50957 22.6076 4.23313C22.1341 4.11132 22.0357 4.10648 21.07 4.1019C20.245 4.1019 19.9592 4.12073 19.6402 4.18634C18.745 4.37861 17.8074 4.76288 17.2776 5.14715L17.048 5.31602L17.301 5.39105C18.2105 5.66291 18.9182 6.47851 19.2089 7.58479C19.2511 7.74426 19.2979 7.87064 19.3119 7.86123C19.3259 7.85182 19.5464 7.74399 19.804 7.62217H19.8048ZM29.9346 6.93323C30.1596 6.80658 30.4783 6.59091 30.6377 6.46453C31.1675 6.04261 31.9409 5.15199 32.8783 3.88167L33.2814 3.32853H33.1313C32.9111 3.3331 31.9734 3.45034 31.5001 3.53478C29.7235 3.85343 27.6609 4.92691 26.1798 6.30049L25.8985 6.55837L26.2032 6.56295C26.8502 6.56295 28.2047 6.79259 29.1095 7.05048C29.3298 7.11152 29.5126 7.16772 29.5175 7.16772C29.5221 7.17229 29.7097 7.06473 29.9346 6.93323Z" fill="#010000"/>
<path d="M27.5204 26.6436C27.3375 26.5124 27.2813 26.3013 27.2813 25.7202V25.181L26.8734 25.1482C25.7483 25.0592 24.7592 24.7123 23.9157 24.1075C23.7282 23.9715 23.536 23.8591 23.4937 23.8591C23.4469 23.8591 23.2313 24.0231 23.0156 24.2248C22.7954 24.431 22.5703 24.6185 22.5141 24.6467C22.1906 24.8202 21.7969 24.5765 21.7969 24.206C21.7969 24.0653 21.947 23.798 22.0734 23.7045C22.1202 23.6762 22.2984 23.517 22.467 23.3621L22.7717 23.0763L22.4904 22.706C22.3404 22.4997 22.1013 22.1061 21.9607 21.8199C21.2435 20.3574 21.1403 18.7544 21.6654 17.184C21.8201 16.7247 22.0779 16.1855 22.3076 15.8435C22.3872 15.7311 22.4342 15.6184 22.4154 15.6044C22.3966 15.5856 22.1669 15.4027 21.9045 15.1919C21.5388 14.9012 21.417 14.7794 21.3842 14.6622C21.2951 14.3341 21.5154 14.0152 21.8249 14.0152C22.0406 14.0152 22.1156 14.0574 22.6217 14.4651C22.8562 14.6573 23.067 14.8119 23.0904 14.8119C23.1138 14.8119 23.2684 14.6901 23.4373 14.5447C24.2106 13.8697 25.2325 13.3916 26.3248 13.1947L26.7513 13.1151L26.7467 12.4918C26.7421 11.8919 26.7467 11.8636 26.8545 11.7464C26.9998 11.5918 27.2203 11.5496 27.4359 11.6386C27.6984 11.751 27.75 11.9059 27.75 12.5526V13.1151L28.1343 13.1713C29.2217 13.3308 30.2436 13.8041 31.1624 14.5775L31.5048 14.8633L31.8656 14.5258C32.4234 14.0009 32.5406 13.9493 32.8359 14.0851C33.0047 14.1695 33.0937 14.3242 33.0937 14.5444C33.0937 14.774 32.9907 14.8958 32.1891 15.6085C32.1657 15.6273 32.2547 15.8287 32.386 16.0538C33.4361 17.8818 33.5017 20.0333 32.5734 21.871L32.3577 22.2975L32.8453 22.6866C33.4312 23.1553 33.5157 23.2538 33.5157 23.4788C33.5157 23.6945 33.4078 23.8491 33.2016 23.9381C32.9625 24.0366 32.7985 23.9615 32.2642 23.5256C32.0111 23.3239 31.786 23.1553 31.7578 23.1553C31.7296 23.1553 31.5704 23.296 31.4063 23.4646C30.6846 24.1957 29.7609 24.7161 28.6877 25.0022L28.2892 25.11L28.308 25.7006C28.3174 26.0848 28.3034 26.3427 28.2706 26.4271C28.1628 26.6896 27.7551 26.8068 27.5206 26.6428L27.5204 26.6436ZM31.4531 19.0077C31.6548 18.9047 31.7484 18.6891 31.7204 18.4029C31.7016 18.2061 31.6736 18.1451 31.5096 17.9904C31.3407 17.8358 31.2894 17.8124 31.0877 17.8124C30.4644 17.8124 30.2533 18.5342 30.7502 18.9561C30.9237 19.1013 31.2329 19.1201 31.4534 19.0077H31.4531ZM29.7515 17.6764C30.0562 17.5217 30.267 17.3155 30.4076 17.0248C30.7639 16.2982 30.3794 15.3654 29.6154 15.1123C29.1561 14.9623 28.4857 15.1357 28.1905 15.4826C27.5295 16.2608 27.8202 17.3951 28.767 17.7465C29.0155 17.8404 29.503 17.8076 29.7515 17.6764Z" fill="#010000"/>
<path d="M40.2937 31.1484C40.0124 31.0405 39.6233 30.7264 39.4453 30.4546C38.9717 29.742 39.0562 28.5843 39.6187 28.1014C39.8438 27.9139 40.003 27.8717 40.4483 27.8997C40.8326 27.9185 41.067 28.0543 41.3201 28.3966C41.5591 28.7153 41.6248 28.9872 41.6248 29.6247C41.6248 30.4124 41.4887 30.8717 41.1889 31.0919C41.0248 31.2185 40.5513 31.2465 40.2937 31.1481V31.1484ZM40.5467 29.5968C40.5467 29.2733 40.4857 29.156 40.3265 29.156C40.2092 29.156 40.2092 29.1654 40.2281 29.3905C40.2514 29.6156 40.3969 29.8592 40.5093 29.8592C40.5282 29.8592 40.5467 29.742 40.5467 29.5968Z" fill="#010000"/>
<path d="M30.3611 43.4063C30.2532 42.7313 30.1408 42.3656 29.8362 41.7423C29.2642 40.561 28.369 39.5203 26.9064 38.3392C25.9547 37.5659 25.247 37.0595 22.3266 35.0626C19.2705 32.9718 17.6111 31.4017 16.3736 29.4376C15.7782 28.4953 15.3049 27.3049 15.075 26.1892C14.9344 25.5094 14.9344 25.5002 15.0188 25.5002C15.0562 25.5002 15.1218 25.6032 15.1689 25.7487C15.3049 26.1612 15.722 27.0613 15.9984 27.5205C16.5704 28.4908 17.297 29.3628 18.0421 29.9722C18.8954 30.6705 20.5922 31.5754 21.7735 31.9642C22.9314 32.3439 23.8126 32.4986 25.1437 32.5548C26.1467 32.597 26.7609 32.7844 27.6844 33.333C28.3921 33.7549 28.8095 34.1112 30.0233 35.2971C30.8483 36.1081 31.214 36.4313 31.5701 36.6658C32.3106 37.1579 32.9294 37.383 33.8577 37.5002L34.3076 37.5564L34.3358 37.8237C34.4154 38.5692 34.5609 39.1314 34.8327 39.7316C35.1514 40.4442 35.8452 41.316 36.3983 41.7003C36.5389 41.7942 36.6562 41.8926 36.6562 41.916C36.6562 41.9394 36.3561 42.1034 35.9906 42.2817C34.1812 43.1535 32.6298 43.6176 30.6329 43.8941L30.4407 43.9223L30.3611 43.4068V43.4063Z" fill="#8A5B22"/>
<path d="M8.22189 30.9564C7.95003 30.6891 7.63137 30.0235 7.47648 29.4236C7.09678 27.9282 7.28905 26.4283 7.9312 25.8471C8.03903 25.7533 8.15628 25.6877 8.2313 25.6877H8.35796L8.32515 26.03C8.25954 26.8222 8.24072 28.6879 8.29235 29.3674C8.34398 30.0144 8.45638 30.8908 8.51258 31.0925C8.5548 31.2331 8.4424 31.1815 8.22189 30.9564Z" fill="#8A5B22"/>
<path d="M6.47353 25.7718C6.29067 25.3921 6.21565 24.9423 6.24845 24.3797C6.31407 23.1376 6.79702 21.9937 7.5938 21.1829C8.10929 20.658 8.41881 20.5031 9.03756 20.4563C9.27662 20.4375 9.46889 20.4329 9.46889 20.4469C9.46889 20.4609 9.43608 20.5642 9.39386 20.6766C9.17363 21.3093 8.80791 22.8047 8.62506 23.836C8.56886 24.1452 8.51723 24.4407 8.50781 24.4921C8.49383 24.5671 8.41397 24.6045 8.16549 24.6701C7.58412 24.8202 7.06405 25.2515 6.76852 25.8372C6.70748 25.959 6.6467 26.0623 6.63245 26.0623C6.62304 26.0623 6.55286 25.931 6.47299 25.7716L6.47353 25.7718Z" fill="#8A5B22"/>
<path d="M7.03125 20.0672C7.03125 18.7687 7.80463 17.0296 8.72806 16.2611C9.17794 15.886 9.50144 15.7502 9.98439 15.7174C10.3595 15.694 10.4157 15.6986 10.6688 15.8158C10.9874 15.961 11.2501 16.1533 11.2501 16.2377C11.2501 16.266 11.1235 16.5378 10.9737 16.8331C10.6502 17.4564 10.1581 18.5533 9.93787 19.1347C9.78782 19.5283 9.77841 19.5426 9.66144 19.5098C9.59582 19.491 9.35219 19.4815 9.1177 19.4815C8.45216 19.4955 7.73014 19.7722 7.23804 20.2033C7.14903 20.2783 7.06459 20.3439 7.05518 20.3439C7.0412 20.3439 7.03179 20.2221 7.03179 20.0675L7.03125 20.0672Z" fill="#8A5B22"/>
<path d="M11.5687 15.239C11.4748 15.1688 11.2406 15.0373 11.0532 14.9483C10.744 14.8077 10.6641 14.7889 10.1908 14.7749C9.61427 14.7561 9.3096 14.8171 8.88311 15.0373C8.75646 15.1075 8.63464 15.1686 8.61582 15.178C8.55478 15.2062 8.85031 14.3903 9.04231 13.9967C9.422 13.2139 10.069 12.3561 10.6079 11.9202C11.8314 10.9263 12.9468 10.9922 13.7579 12.0936C13.8469 12.2154 13.9219 12.3466 13.9219 12.3794C13.9219 12.4168 13.7858 12.6045 13.6266 12.7965C13.1531 13.3591 12.7126 13.9544 12.2345 14.6856C11.9909 15.0607 11.7798 15.37 11.7658 15.37C11.7518 15.37 11.6628 15.3138 11.569 15.2387L11.5687 15.239Z" fill="#8A5B22"/>
<path d="M14.5174 11.5453C14.3206 11.1656 13.6128 10.603 13.0831 10.4016C12.7362 10.2704 12.0284 10.2327 11.6815 10.3266L11.4285 10.3922L11.4613 10.2704C11.4753 10.2048 11.5831 9.96115 11.6909 9.72666C12.3142 8.42353 13.6268 7.19543 14.9721 6.65627C15.4736 6.45459 15.7361 6.4078 16.3363 6.40323C16.7722 6.39866 16.8849 6.41721 17.0723 6.50165C17.5832 6.73614 17.9723 7.27987 18.1832 8.06266C18.3426 8.63462 18.3332 8.66259 17.9441 8.90165C17.1707 9.37977 15.966 10.3454 15.1082 11.1704L14.5833 11.6768L14.5177 11.5455L14.5174 11.5453Z" fill="#8A5B22"/>
<path d="M19.0877 7.79053C18.7503 6.52478 17.9954 5.70461 16.9596 5.47954C16.8096 5.44673 16.6877 5.40935 16.6877 5.38569C16.6877 5.36687 16.8424 5.23564 17.0301 5.095C17.6348 4.63087 18.5206 4.25601 19.5002 4.04492C19.8283 3.97473 20.1096 3.96048 21.0707 3.96048C22.1909 3.96048 22.266 3.96989 22.7489 4.09171C23.5973 4.30253 24.0754 4.52303 24.4363 4.86993C24.8254 5.23564 24.8862 5.57312 24.6565 6.02784C24.4363 6.47315 24.3613 6.51994 23.827 6.57157C23.5739 6.59497 23.1566 6.65601 22.899 6.70764C22.0038 6.88566 20.4194 7.48102 19.5193 7.97339L19.1864 8.15624L19.088 7.79053H19.0877Z" fill="#8A5B22"/>
<path d="M33.8017 36.5577C33.0846 36.4639 32.3768 36.1546 31.7486 35.6483C30.9798 35.0341 30.3471 34.2373 30.1314 33.6186C30.0376 33.3513 30.0236 33.22 30.0284 32.6951C30.033 32.1374 30.0472 32.0436 30.1879 31.6171C30.4926 30.6842 31.0785 29.6998 31.8847 28.7578C32.7097 27.797 33.4831 27.1217 34.641 26.3532C36.0753 25.397 37.3785 24.8906 38.602 24.8204L39.1223 24.7876L39.3052 25.0595C39.5582 25.4438 39.9006 25.8001 40.3131 26.1002C41.3161 26.8407 41.7286 27.3659 42.0053 28.2657C42.1459 28.725 42.1648 29.7 42.0381 30.2158C41.7428 31.4159 41.1803 32.4469 40.1818 33.6143C39.1551 34.8095 37.7773 35.7986 36.9146 35.958C36.4177 36.0519 35.7849 35.9486 35.2928 35.6956C35.0538 35.5689 34.6085 35.1236 34.4584 34.8566C34.2522 34.4957 34.1726 34.1628 34.1726 33.6753C34.1726 33.4408 34.1865 33.1832 34.2008 33.1033L34.229 32.9581H34.6883C35.3633 32.9627 35.6257 32.8129 35.6257 32.4284C35.6257 32.3111 35.5884 32.2127 35.5133 32.1237C35.4009 31.9925 35.3961 31.9925 34.8195 31.9876C34.1164 31.9876 33.8257 31.8938 33.4414 31.5423C33.3008 31.4157 33.1367 31.3033 33.0711 31.2844C32.7758 31.2094 32.4852 31.4296 32.4852 31.7252C32.4852 31.9782 32.6398 32.1845 33.0007 32.4329C33.1787 32.5548 33.3008 32.6674 33.3008 32.7142C33.2962 32.7564 33.268 32.9815 33.2351 33.2157C33.0663 34.4487 33.671 35.808 34.6367 36.3797C34.8897 36.5297 34.9131 36.5531 34.8195 36.5814C34.6789 36.6188 34.1774 36.6048 33.8023 36.558L33.8017 36.5577ZM41.0628 30.9467C41.3252 30.7498 41.4847 30.2529 41.4847 29.6247C41.4847 29.1372 41.4003 28.8325 41.18 28.5373C40.7815 27.9935 40.1955 27.8717 39.7596 28.242C39.0519 28.8514 39.1737 30.1217 39.9987 30.745C40.4394 31.0779 40.7909 31.1435 41.0628 30.9467Z" fill="#CFB796"/>
<path d="M31.711 8.05325C31.5563 7.97365 31.2751 7.83759 31.0876 7.75315C30.9002 7.67355 30.7362 7.59369 30.7219 7.58428C30.7125 7.57029 30.8437 7.45305 31.0172 7.32639C31.4625 6.99349 32.3343 6.08431 32.878 5.37628C33.1967 4.96377 33.3701 4.78091 33.4357 4.78091C33.5247 4.78091 33.5247 4.79974 33.4968 5.10441C33.4546 5.59651 33.2623 6.20128 32.953 6.82004C32.6344 7.45278 32.1702 8.1748 32.0624 8.18878C32.025 8.19335 31.8656 8.13258 31.711 8.05271V8.05325Z" fill="#CFB796"/>
</svg>
